<svg id="visual" viewBox="0 0 960 300" width="960" height="300" xmlns="http://www.w3.org/2000/svg" xmlns:xlink="http://www.w3.org/1999/xlink" version="1.1"><path d="M0 242L22.8 239.3C45.7 236.7 91.3 231.3 137 229.3C182.7 227.3 228.3 228.7 274 234C319.7 239.3 365.3 248.7 411.2 253.2C457 257.7 503 257.3 548.8 253C594.7 248.7 640.3 240.3 686 240.5C731.7 240.7 777.3 249.3 823 250.2C868.7 251 914.3 244 937.2 240.5L960 237L960 301L937.2 301C914.3 301 868.7 301 823 301C777.3 301 731.7 301 686 301C640.3 301 594.7 301 548.8 301C503 301 457 301 411.2 301C365.3 301 319.7 301 274 301C228.3 301 182.7 301 137 301C91.3 301 45.7 301 22.8 301L0 301Z" fill="#4facf7"></path><path d="M0 250L22.8 250.3C45.7 250.7 91.3 251.3 137 254.3C182.7 257.3 228.3 262.7 274 265.8C319.7 269 365.3 270 411.2 265.5C457 261 503 251 548.8 248C594.7 245 640.3 249 686 249.3C731.7 249.7 777.3 246.3 823 248C868.7 249.7 914.3 256.3 937.2 259.7L960 263L960 301L937.2 301C914.3 301 868.7 301 823 301C777.3 301 731.7 301 686 301C640.3 301 594.7 301 548.8 301C503 301 457 301 411.2 301C365.3 301 319.7 301 274 301C228.3 301 182.7 301 137 301C91.3 301 45.7 301 22.8 301L0 301Z" fill="#008cff"></path><path d="M0 290L22.8 285.5C45.7 281 91.3 272 137 268.2C182.7 264.3 228.3 265.7 274 267.3C319.7 269 365.3 271 411.2 270.2C457 269.3 503 265.7 548.8 265.8C594.7 266 640.3 270 686 272.7C731.7 275.3 777.3 276.7 823 275.2C868.7 273.7 914.3 269.3 937.2 267.2L960 265L960 301L937.2 301C914.3 301 868.7 301 823 301C777.3 301 731.7 301 686 301C640.3 301 594.7 301 548.8 301C503 301 457 301 411.2 301C365.3 301 319.7 301 274 301C228.3 301 182.7 301 137 301C91.3 301 45.7 301 22.8 301L0 301Z" fill="#0066ff"></path></svg>